<svg xmlns="http://www.w3.org/2000/svg" xmlns:xlink="http://www.w3.org/1999/xlink" viewBox="0 0 956.79 768"><defs><style>.cls-1{fill:url(#linear-gradient);}.cls-2{fill:#eee;}.cls-3{fill:#e5e5e5;}.cls-4{fill:#d2cfd0;}.cls-5{fill:#646565;}.cls-6{fill:#39c930;}.cls-10,.cls-11,.cls-12,.cls-13,.cls-15,.cls-7,.cls-8,.cls-9{fill:none;stroke-miterlimit:10;}.cls-10,.cls-11,.cls-12,.cls-13,.cls-7,.cls-8,.cls-9{stroke:#646565;stroke-linecap:round;stroke-width:3px;}.cls-8{stroke-dasharray:0 6.89;}.cls-9{stroke-dasharray:0 6.99;}.cls-10{stroke-dasharray:0 7.02;}.cls-11{stroke-dasharray:0 7.15;}.cls-12{stroke-dasharray:0 7;}.cls-13{stroke-dasharray:0 7;}.cls-14{fill:#fff;}.cls-15{stroke:silver;stroke-width:2px;}.cls-16{fill:#bacf1c;}</style><linearGradient id="linear-gradient" x1="-519.54" y1="355.34" x2="1240.15" y2="410.06" gradientUnits="userSpaceOnUse"><stop offset="0" stop-color="#fff"/><stop offset="0.49" stop-color="#fdfdfd"/><stop offset="0.69" stop-color="#f6f6f6"/><stop offset="0.84" stop-color="#eae9e9"/><stop offset="0.96" stop-color="#d9d8d8"/><stop offset="1" stop-color="#d2d1d1"/></linearGradient></defs><g id="Capa_1" data-name="Capa 1"><path class="cls-1" d="M0,768H804.57c94.66-102,152.22-236.49,152.22-384,0-114.48-34.68-221.17-94.47-310.86A580.89,580.89,0,0,0,804.51,0H0Z"/><circle class="cls-2" cx="345.5" cy="383.5" r="301.5"/><circle class="cls-3" cx="344.29" cy="384.03" r="225.76"/><circle class="cls-4" cx="344.29" cy="384.03" r="151.64"/><polygon class="cls-5" points="275.15 158.17 280.21 177.53 287.5 165.22 275.15 158.17"/><circle class="cls-6" cx="345" cy="384" r="110"/><line class="cls-7" x1="252.09" y1="475.77" x2="252.09" y2="475.77"/><path class="cls-8" d="M247.33,470.79a127.58,127.58,0,0,1-28.6-118.93"/><line class="cls-7" x1="219.68" y1="348.55" x2="219.68" y2="348.55"/><polygon class="cls-5" points="209.43 346.58 229.13 353.18 222.57 340.03 209.43 346.58"/><line class="cls-7" x1="356.24" y1="254.27" x2="356.24" y2="254.27"/><path class="cls-9" d="M363.18,255.06A127.82,127.82,0,0,1,467,342.79"/><line class="cls-7" x1="468.03" y1="346.14" x2="468.03" y2="346.14"/><polygon class="cls-5" points="477.71 342.24 457.58 347.37 470.21 354.86 477.71 342.24"/><line class="cls-7" x1="472.61" y1="364.4" x2="472.61" y2="364.4"/><path class="cls-10" d="M473.55,371.36A127.64,127.64,0,0,1,419.3,490"/><line class="cls-7" x1="416.39" y1="491.93" x2="416.39" y2="491.93"/><polygon class="cls-5" points="422.95 500.05 412.16 482.3 408.68 496.57 422.95 500.05"/><line class="cls-7" x1="400.35" y1="501.31" x2="400.35" y2="501.31"/><path class="cls-11" d="M393.83,504.23a128,128,0,0,1-125.48-15.46"/><line class="cls-7" x1="265.52" y1="486.59" x2="265.52" y2="486.59"/><polygon class="cls-5" points="259.91 495.41 273.29 479.51 258.66 480.77 259.91 495.41"/><line class="cls-7" x1="227.41" y1="333.43" x2="227.41" y2="333.43"/><path class="cls-12" d="M230.72,327.26c23.71-42.07,63.86-70.55,108.65-73"/><line class="cls-7" x1="342.86" y1="254.06" x2="342.86" y2="254.06"/><polygon class="cls-5" points="341.57 243.7 341.37 264.47 351.85 254.19 341.57 243.7"/><path class="cls-13" d="M278.5,168.5C226,182,181,217,151,265a211.6,211.6,0,0,0-11,21c-8,20-17,41-18,63-7,2-14,0-21.25,1.05"/><circle class="cls-14" cx="344" cy="384" r="75"/><path class="cls-15" d="M565,125c17.11,14.25,126.85,108.81,126,263.13C690.19,535.49,589.15,626.71,571.63,642"/></g><g id="Capa_3" data-name="Capa 3"><path class="cls-16" d="M343,337.89l.1.08v4.31h2.23V338l.1-.08,3.28-3.28a1.72,1.72,0,0,0,0-2.43h0l-3.28-3.29a1.72,1.72,0,0,0-2.43,0h0l-3.28,3.29a1.72,1.72,0,0,0,0,2.42h0Zm1.22-7.07,2.57,2.57L344.24,336l-2.58-2.57Z"/><path class="cls-16" d="M379.27,362.72,376,359.44a1.73,1.73,0,0,0-2.44,0h0l-3.27,3.28-.09.1h-4.3V365h4.29l.09.11,3.27,3.27a1.72,1.72,0,0,0,2.44,0h0l3.28-3.27a1.72,1.72,0,0,0,0-2.43m-4.5,3.78-2.58-2.61,2.57-2.57,2.59,2.57Z"/><path class="cls-16" d="M322.51,347h4.6l2.92,2.92.06-.07,1.39-1.38.07-.06-2.94-2.94v-4.6a1.65,1.65,0,0,0-1.65-1.65h-4.45a1.65,1.65,0,0,0-1.65,1.65v4.46A1.65,1.65,0,0,0,322.5,347h0m.49-5.64h3.49v3.52H323Z"/><path class="cls-16" d="M368.18,381.49h-4.81l-3-3-.06.06L358.87,380l-.07.06,3,3v4.84a1.72,1.72,0,0,0,1.72,1.72h4.66a1.71,1.71,0,0,0,1.7-1.72v-4.68a1.72,1.72,0,0,0-1.7-1.72h0m-4.13,2.22h3.63v3.64H364Z"/><path class="cls-16" d="M358.83,347.89l1.44,1.44.06.07,3-3h4.85a1.73,1.73,0,0,0,1.73-1.72V340a1.73,1.73,0,0,0-1.73-1.72h-4.67a1.72,1.72,0,0,0-1.72,1.72h0v4.77l-3,3Zm5.18-7.38h3.64v3.63H364Z"/><path class="cls-16" d="M329.65,380l-1.47-1.45v-.06l-3.05,3h-4.8a1.73,1.73,0,0,0-1.73,1.72v4.71a1.73,1.73,0,0,0,1.73,1.72H325a1.72,1.72,0,0,0,1.72-1.72h0v-4.82l3-3Zm-5.19,7.37h-3.63v-3.63h3.63Z"/><path class="cls-16" d="M345.54,355.89a8,8,0,0,0-8,7.84,5.25,5.25,0,0,1,3.81-3.92,5.88,5.88,0,0,1,8.56,8,5.23,5.23,0,0,1,1.15,1.1l.69.06a8,8,0,0,0-6.21-13.08"/><path class="cls-16" d="M329.8,350.89a3,3,0,0,0-.21,4.24l.05.05,1.22,1.23a15.43,15.43,0,0,0-1.39,3.33h-1.75a3,3,0,0,0-2.92,3.08v2.07a3.05,3.05,0,0,0,2.92,3.15h1.73a15.43,15.43,0,0,0,1.39,3.33l-1.23,1.22a3,3,0,0,0-.37,3.64,4.93,4.93,0,0,1,1.84-2,.61.61,0,0,1,.07-.1l2.47-2.47-.44-.69a12.93,12.93,0,0,1-1.77-4.27l-.23-.86h-3.46c-.38,0-.7-.42-.7-.93v-2.07c0-.5.32-.93.7-.93h3.46l.19-.87a13.18,13.18,0,0,1,1.81-4.2l.48-.75-2.48-2.51a.87.87,0,0,1,.16-1.15l1.44-1.43a1.05,1.05,0,0,1,.72-.33.67.67,0,0,1,.43.16l2.47,2.47.78-.46a13.11,13.11,0,0,1,4.27-1.77l.87-.19v-3.51c0-.38.42-.7.92-.7h2c.5,0,.92.32.92.7v3.47l.88.19a13,13,0,0,1,4.28,1.81l.75.48,2.46-2.48a.58.58,0,0,1,.43-.16,1,1,0,0,1,.72.32l1.44,1.44a.83.83,0,0,1,.16,1.15l-2.46,2.45.48.75a13.11,13.11,0,0,1,1.77,4.27l.19.87h3.48c.38,0,.7.42.7.93v2c0,.5-.32.92-.7.92h-3.48l-.19.88A12.93,12.93,0,0,1,355.3,371l-.22.35a5.47,5.47,0,0,1,4.51,4,2.86,2.86,0,0,0-.74-2.68l-1.22-1.23a14.49,14.49,0,0,0,1.39-3.33h1.73a3,3,0,0,0,2.93-3.07s0,0,0-.08v-2.05a3,3,0,0,0-2.84-3.14H359a14.49,14.49,0,0,0-1.39-3.33l1.22-1.22a3,3,0,0,0-.18-4.3l-1.41-1.41a3.31,3.31,0,0,0-2.3-1,2.82,2.82,0,0,0-2,.82l-1.22,1.22a15.22,15.22,0,0,0-3.33-1.39v-1.71a3,3,0,0,0-3.07-2.92h-2.16a3,3,0,0,0-3.14,2.85.17.17,0,0,0,0,.07v1.73a15.61,15.61,0,0,0-3.33,1.38l-1.22-1.22a2.77,2.77,0,0,0-2-.81,3.27,3.27,0,0,0-2.31,1Z"/><path class="cls-16" d="M357.53,384.32V382.8a1,1,0,0,0,0-.24v-5.81a3.23,3.23,0,0,0-3.24-3.22h0a3.47,3.47,0,0,0-1.3.26,3.25,3.25,0,0,0-3.13-2.41,3.52,3.52,0,0,0-1.11.21,3.25,3.25,0,0,0-3.12-2.37,3.28,3.28,0,0,0-1.11.19v-4.47a3.23,3.23,0,0,0-.95-2.28,3.3,3.3,0,0,0-2.33-1,3.35,3.35,0,0,0-2.3.92,3.18,3.18,0,0,0-1,2.28v13.26a6.76,6.76,0,0,0-2.76-2.17,3.27,3.27,0,0,0-2.53.12,2.64,2.64,0,0,0-1.54,1.53c-.55,1.49,0,3.5,1.8,6.15l5.14,9.06h-.47a1.12,1.12,0,0,0-1.12,1.08v4.44a1.11,1.11,0,0,0,2.22,0V395h16.66v3.33a1.11,1.11,0,0,0,2.22,0v-4.47a1.11,1.11,0,0,0-1.11-1.11h-.1a49.75,49.75,0,0,0,1.17-8.42v-.07m-16.92,8.52-5.77-10.21v-.07c-1.84-2.72-1.7-3.83-1.61-4.11.15-.46.88-.52,1.27-.39a4.16,4.16,0,0,1,1.63,1.34,13.7,13.7,0,0,1,1.42,2.14c.18.33.31.69.51,1a1.31,1.31,0,0,0,.88.76,1,1,0,0,0,1.05-.46,1.38,1.38,0,0,0,.23-.66l0-17.26a1,1,0,0,1,1.77-.69,1,1,0,0,1,.29.7l-.06,17.29a1.15,1.15,0,1,0,2.3-.07v-9.7a1,1,0,1,1,2.06,0v2.15l-.06,7.69a1.11,1.11,0,0,0,2.22,0h0v-7.78a1,1,0,0,1,1.07-.92h.06a1,1,0,0,1,.93,1v7.56a1.19,1.19,0,0,0,2.35.37,1,1,0,0,0,0-.3V376.7a1,1,0,0,1,2.06,0v7.37a47.6,47.6,0,0,1-1.18,8.74Z"/><path class="cls-16" d="M324.69,365v-2.11h-4.15l-.08-.1-3.16-3.15a1.68,1.68,0,0,0-2.35,0h0l-3.15,3.12a1.68,1.68,0,0,0,0,2.35h0l3.15,3.15a1.66,1.66,0,0,0,2.35,0h0l3.16-3.15.08-.1Zm-8.51,1.41-2.53-2.52,2.53-2.43,2.42,2.43Z"/><path class="cls-16" d="M140.54,129.94a3.83,3.83,0,0,0-4-3.65h0a3.65,3.65,0,1,0,4,3.65Zm-4,2.05a2.17,2.17,0,0,1-2.26-2.05,2.25,2.25,0,0,1,4.5,0A2.15,2.15,0,0,1,136.54,132Z"/><path class="cls-16" d="M177.75,170.81,172.48,160a3,3,0,0,0-2.74-1.66h-2.89a20.09,20.09,0,0,0-.5-29.83,24.61,24.61,0,0,0-16.67-6.27,25.27,25.27,0,0,0-8.35,1.39,8.85,8.85,0,0,0-4.79-1.39c-4.6,0-8.34,3.4-8.34,7.59a10.88,10.88,0,0,0,.83,3.69,20,20,0,0,0,3.53,24.86h-2.93a3,3,0,0,0-2.75,1.66l-5.26,10.73a2.48,2.48,0,0,0,.23,2.59,3.05,3.05,0,0,0,2.49,1.24H175a3.06,3.06,0,0,0,2.49-1.24A2.5,2.5,0,0,0,177.75,170.81Zm-19.49-12.38a29.65,29.65,0,0,0,2-2.83,20.6,20.6,0,0,1,4.14,2.76l-.1.07Zm-14.91,0a23.45,23.45,0,0,1-2.72-3.56,24.18,24.18,0,0,1,8.18-1.77v5.33Zm7.2-22.48a25.35,25.35,0,0,0,9-1.93,20.76,20.76,0,0,1,2.37,8.92H150.56Zm20.91,8.58a18.93,18.93,0,0,1-5.8,12.7,25,25,0,0,0-4.61-3.07,22.83,22.83,0,0,0,2.59-9.63Zm-9.53,0a21.45,21.45,0,0,1-2.39,8.93,25,25,0,0,0-9-1.93v-7Zm-3.19,10.34a23.26,23.26,0,0,1-2.69,3.56h-5.49V153.1A24.18,24.18,0,0,1,158.74,154.87Zm12.73-11.93h-7.79a22.37,22.37,0,0,0-2.58-9.66,22.63,22.63,0,0,0,4.62-3.07A19,19,0,0,1,171.47,142.94Zm-7-13.83a22,22,0,0,1-4.15,2.76,26,26,0,0,0-7.45-7.8A22.58,22.58,0,0,1,164.46,129.11Zm-5.71,3.49a23.29,23.29,0,0,1-8.19,1.75v-9.86A25,25,0,0,1,158.75,132.6Zm-22.21-8.74c3.63,0,6.62,2.69,6.62,6,0,4.14-4.79,10.3-6.62,12.48-1.8-2.18-6.63-8.36-6.63-12.48A6.38,6.38,0,0,1,136.54,123.86Zm-.65,20.29a.91.91,0,0,0,.67.3.89.89,0,0,0,.67-.3c.32-.35,7.66-8.65,7.66-14.28a7.25,7.25,0,0,0-2-5,23.28,23.28,0,0,1,3.62-.76c-.35.22-.69.46-1,.71a.75.75,0,0,0-.18,1.05l.06.08a1,1,0,0,0,.68.28.86.86,0,0,0,.55-.19c.73-.53,1.49-1.06,2.28-1.53v9.81c-.75,0-1.5-.09-2.26-.19a.83.83,0,0,0-1,.64v0a.83.83,0,0,0,.74.9c.83.11,1.66.16,2.48.21v7h-7.95a.82.82,0,0,0-1,.54.84.84,0,0,0,.55,1,.82.82,0,0,0,.49,0h7.95v7a25,25,0,0,0-9,1.93,21.28,21.28,0,0,1-2.16-6.44.87.87,0,0,0-1.71.26,23,23,0,0,0,2.35,6.93,23.73,23.73,0,0,0-4.61,3A18.74,18.74,0,0,1,128,144.53h4.23a.83.83,0,1,0,.49-1.59.82.82,0,0,0-.49,0h-4.26a18.31,18.31,0,0,1,1.94-7.39A45.44,45.44,0,0,0,135.89,144.15Zm-1,14.23a23.14,23.14,0,0,1,4.19-2.79,25.09,25.09,0,0,0,2,2.85H135Zm41.16,14.18a1.24,1.24,0,0,1-1.05.5H124.36a1.24,1.24,0,0,1-1-.5,1.06,1.06,0,0,1-.09-1.1l5.25-10.77a1.31,1.31,0,0,1,1.16-.65h40.11a1.28,1.28,0,0,1,1.15.67l5.26,10.78A1.06,1.06,0,0,1,176.06,172.56Z"/><path class="cls-16" d="M147.4,165.76a.83.83,0,0,0-.83.83.89.89,0,0,0,1,.79.87.87,0,0,0,.79-.79.83.83,0,0,0-.83-.83Z"/><ellipse class="cls-16" cx="142.86" cy="166.56" rx="0.88" ry="0.8"/><path class="cls-16" d="M156.51,165.76a.83.83,0,0,0-.88.78v.05a.89.89,0,0,0,1,.79.87.87,0,0,0,.79-.79.83.83,0,0,0-.83-.83Z"/><path class="cls-16" d="M161.07,165.76a.83.83,0,0,0-.88.78v.05a.87.87,0,0,0,1.74,0,.83.83,0,0,0-.83-.83Z"/><path class="cls-16" d="M129.21,165.76a.84.84,0,0,0-.87.79v0a.89.89,0,0,0,1,.79.87.87,0,0,0,.79-.79.83.83,0,0,0-.83-.83Z"/><path class="cls-16" d="M138.33,165.76a.83.83,0,0,0-.89.77v.06a.89.89,0,0,0,1,.79.87.87,0,0,0,.79-.79.83.83,0,0,0-.83-.83Z"/><path class="cls-16" d="M133.77,165.76a.83.83,0,0,0-.88.78v.05a.87.87,0,1,0,1.74,0,.83.83,0,0,0-.83-.83Z"/><ellipse class="cls-16" cx="151.95" cy="166.56" rx="0.87" ry="0.8"/><ellipse class="cls-16" cx="170.16" cy="166.56" rx="0.87" ry="0.8"/><path class="cls-16" d="M165.61,165.76a.83.83,0,1,0,.87.88.09.09,0,0,0,0,0,.83.83,0,0,0-.83-.83Z"/><path class="cls-16" d="M139.12,162.11a.83.83,0,1,0-.52,1.57.77.77,0,0,0,.52,0,.83.83,0,1,0,.52-1.57A.77.77,0,0,0,139.12,162.11Z"/><path class="cls-16" d="M143.35,162.11a.82.82,0,0,0-.78.87.83.83,0,1,0,1.65-.09.81.81,0,0,0-.87-.78Z"/><path class="cls-16" d="M135.77,162.89a.88.88,0,1,0-.92.82h.05a.83.83,0,0,0,.87-.77Z"/><path class="cls-16" d="M169.57,162.89a.88.88,0,1,0-.79.78A.88.88,0,0,0,169.57,162.89Z"/><path class="cls-16" d="M131.56,162.89a.83.83,0,0,0-.88-.78h0a.83.83,0,0,0-1.05.52.84.84,0,0,0,.53,1.05.77.77,0,0,0,.52,0,.84.84,0,0,0,.88-.78Z"/><path class="cls-16" d="M147.57,162.11a.83.83,0,0,0-.52,1.57.77.77,0,0,0,.52,0,.83.83,0,1,0,.52-1.57A.77.77,0,0,0,147.57,162.11Z"/><path class="cls-16" d="M165.33,162.89a.83.83,0,1,0-.82.82A.83.83,0,0,0,165.33,162.89Z"/><path class="cls-16" d="M151.81,163.68a.83.83,0,0,0,.77-.88.83.83,0,1,0-.83.88Z"/><path class="cls-16" d="M156.88,162.89a.83.83,0,1,0-1.65,0,.83.83,0,0,0,1.65,0Z"/><path class="cls-16" d="M161.12,162.89a1,1,0,0,0-1.92-.26.84.84,0,0,0,.53,1.05.77.77,0,0,0,.52,0,.84.84,0,0,0,.87-.78Z"/><path class="cls-16" d="M131.81,169.43a.83.83,0,0,0-.83.78.87.87,0,0,0,1.74,0,.81.81,0,0,0-.87-.78Z"/><path class="cls-16" d="M158.62,169.43a.82.82,0,0,0-.82.78.83.83,0,1,0,.82-.78Z"/><path class="cls-16" d="M127.35,169.43a.83.83,0,0,0-.88.78h0a.88.88,0,0,0,1.75,0A.83.83,0,0,0,127.35,169.43Z"/><path class="cls-16" d="M163.08,169.43a.83.83,0,0,0-.83.78.87.87,0,1,0,1.74,0,.81.81,0,0,0-.87-.78Z"/><path class="cls-16" d="M172,169.43a.83.83,0,0,0-.83.78.87.87,0,1,0,1.73,0,.81.81,0,0,0-.87-.78Z"/><path class="cls-16" d="M140.75,169.43a.84.84,0,0,0-.88.78h0a.88.88,0,0,0,1.75,0A.82.82,0,0,0,140.75,169.43Z"/><path class="cls-16" d="M149.68,169.43a.82.82,0,0,0-.82.78.87.87,0,0,0,1.74,0,.81.81,0,0,0-.87-.78Z"/><path class="cls-16" d="M145.22,169.43a.83.83,0,0,0-.83.78.88.88,0,0,0,1.75,0,.83.83,0,0,0-.87-.78Z"/><path class="cls-16" d="M167.55,169.43a.81.81,0,1,0,0,1.61.84.84,0,0,0,.89-.76v-.07a.82.82,0,0,0-.87-.78Z"/><path class="cls-16" d="M136.29,169.43a.83.83,0,0,0-.88.78h0a.88.88,0,0,0,1.75,0A.83.83,0,0,0,136.29,169.43Z"/><path class="cls-16" d="M154.16,169.43a.83.83,0,0,0-.83.78.87.87,0,1,0,1.73,0,.82.82,0,0,0-.87-.78Z"/></g></svg>