<svg id="Capa_1" data-name="Capa 1" xmlns="http://www.w3.org/2000/svg" xmlns:xlink="http://www.w3.org/1999/xlink" viewBox="0 0 956.79 768"><defs><style>.cls-1{fill:url(#linear-gradient);}.cls-2{fill:#eee;}.cls-3{fill:#e5e5e5;}.cls-4{fill:#d2cfd0;}.cls-5{fill:#646565;}.cls-6{fill:#39c930;}.cls-10,.cls-11,.cls-12,.cls-13,.cls-15,.cls-7,.cls-8,.cls-9{fill:none;stroke-miterlimit:10;}.cls-10,.cls-11,.cls-12,.cls-13,.cls-7,.cls-8,.cls-9{stroke:#646565;stroke-linecap:round;stroke-width:3px;}.cls-8{stroke-dasharray:0 6.89;}.cls-9{stroke-dasharray:0 6.99;}.cls-10{stroke-dasharray:0 7.02;}.cls-11{stroke-dasharray:0 7.15;}.cls-12{stroke-dasharray:0 7;}.cls-13{stroke-dasharray:0 7;}.cls-14{fill:#fff;}.cls-15{stroke:silver;stroke-width:2px;}</style><linearGradient id="linear-gradient" x1="-519.54" y1="355.34" x2="1240.15" y2="410.06" gradientUnits="userSpaceOnUse"><stop offset="0" stop-color="#fff"/><stop offset="0.49" stop-color="#fdfdfd"/><stop offset="0.69" stop-color="#f6f6f6"/><stop offset="0.84" stop-color="#eae9e9"/><stop offset="0.96" stop-color="#d9d8d8"/><stop offset="1" stop-color="#d2d1d1"/></linearGradient></defs><path class="cls-1" d="M0,768H804.57c94.66-102,152.22-236.49,152.22-384,0-114.48-34.68-221.17-94.47-310.86A580.89,580.89,0,0,0,804.51,0H0Z"/><circle class="cls-2" cx="345.5" cy="383.5" r="301.5"/><circle class="cls-3" cx="344.29" cy="384.03" r="225.76"/><circle class="cls-4" cx="344.29" cy="384.03" r="151.64"/><polygon class="cls-5" points="275.15 158.17 280.21 177.53 287.5 165.22 275.15 158.17"/><circle class="cls-6" cx="345" cy="384" r="110"/><line class="cls-7" x1="252.09" y1="475.77" x2="252.09" y2="475.77"/><path class="cls-8" d="M247.33,470.79a127.58,127.58,0,0,1-28.6-118.93"/><line class="cls-7" x1="219.68" y1="348.55" x2="219.68" y2="348.55"/><polygon class="cls-5" points="209.43 346.58 229.13 353.18 222.57 340.03 209.43 346.58"/><line class="cls-7" x1="356.24" y1="254.27" x2="356.24" y2="254.27"/><path class="cls-9" d="M363.18,255.06A127.82,127.82,0,0,1,467,342.79"/><line class="cls-7" x1="468.03" y1="346.14" x2="468.03" y2="346.14"/><polygon class="cls-5" points="477.71 342.24 457.58 347.37 470.21 354.86 477.71 342.24"/><line class="cls-7" x1="472.61" y1="364.4" x2="472.61" y2="364.4"/><path class="cls-10" d="M473.55,371.36A127.64,127.64,0,0,1,419.3,490"/><line class="cls-7" x1="416.39" y1="491.93" x2="416.39" y2="491.93"/><polygon class="cls-5" points="422.95 500.05 412.16 482.3 408.68 496.57 422.95 500.05"/><line class="cls-7" x1="400.35" y1="501.31" x2="400.35" y2="501.31"/><path class="cls-11" d="M393.83,504.23a128,128,0,0,1-125.48-15.46"/><line class="cls-7" x1="265.52" y1="486.59" x2="265.52" y2="486.59"/><polygon class="cls-5" points="259.91 495.41 273.29 479.51 258.66 480.77 259.91 495.41"/><line class="cls-7" x1="227.41" y1="333.43" x2="227.41" y2="333.43"/><path class="cls-12" d="M230.72,327.26c23.71-42.07,63.86-70.55,108.65-73"/><line class="cls-7" x1="342.86" y1="254.06" x2="342.86" y2="254.06"/><polygon class="cls-5" points="341.57 243.7 341.37 264.47 351.85 254.19 341.57 243.7"/><path class="cls-13" d="M278.5,168.5c-145,44-157,181-157,181l-76,2c-1.86,28.55-1.48,4.76-2,34-3,170.08,133.67,292.72,300,300.06,112,4.94,223-83.06,239-118.06l-13-6"/><circle class="cls-14" cx="344" cy="384" r="75"/><polygon class="cls-5" points="567.27 571.17 576.86 553.6 563.11 557.58 567.27 571.17"/><path class="cls-15" d="M565,125c17.11,14.25,126.85,108.81,126,263.13C690.19,535.49,589.15,626.71,571.63,642"/></svg>